<?xml version="1.0" ?><!DOCTYPE svg  PUBLIC '-//W3C//DTD SVG 1.1//EN'  'http://www.w3.org/Graphics/SVG/1.1/DTD/svg11.dtd'><svg enable-background="new 0 0 32 32"  id="Слой_1" version="1.1" viewBox="0 0 32 32"  xml:space="preserve" xmlns="http://www.w3.org/2000/svg" xmlns:xlink="http://www.w3.org/1999/xlink"><path clip-rule="evenodd" d="M15.294,0.295L15.294,0.295L15.294,0.295  l-9.991,9.97c-0.66,0.634-0.162,1.748,0.734,1.723h4.976c0,0.004-0.002,0.008-0.002,0.012v19c0,0.55,0.45,1,1,1h8c0.55,0,1-0.45,1-1  V12c0-0.004-0.002-0.008-0.002-0.012h4.972c0.892,0.024,1.376-1.082,0.742-1.715l-9.999-9.977  C16.328-0.098,15.688-0.098,15.294,0.295z M23.574,9.983H19.01V10v1v0.988h0.002c0,0.004-0.002,0.008-0.002,0.012v1v17h-6V13v-1  c0-0.004-0.002-0.008-0.002-0.012h0.002V11v-1V9.983H8.442l7.566-7.55L23.574,9.983z" fill="#121313" fill-rule="evenodd" id="Arrow_Up"/><g/><g/><g/><g/><g/><g/></svg>